<!-- Generated by IcoMoon.io -->
<svg version="1.1" xmlns="http://www.w3.org/2000/svg" width="439" height="512" viewBox="0 0 439 512">
<title></title>
<g id="icomoon-ignore">
</g>
<path fill="white" d="M400.757 295.048c0 0.488 0 1.221-0.243 1.708-20.743 86.394-92.007 146.673-182.061 146.673-47.59 0-93.716-18.792-128.369-51.739l-31.482 31.482c-2.928 2.928-6.833 4.637-10.982 4.637-8.542 0-15.618-7.077-15.618-15.618v-109.334c0-8.542 7.078-15.618 15.618-15.618h109.334c8.542 0 15.618 7.077 15.618 15.618 0 4.149-1.708 8.054-4.637 10.982l-33.435 33.435c22.94 21.476 53.446 33.679 84.93 33.679 43.44 0 83.709-22.452 106.406-59.548 5.857-9.518 8.786-18.792 12.935-28.554 1.221-3.417 3.661-5.613 7.321-5.613h46.857c4.393 0 7.81 3.661 7.81 7.81zM406.858 99.809v109.334c0 8.542-7.077 15.618-15.618 15.618h-109.334c-8.542 0-15.618-7.077-15.618-15.618 0-4.149 1.708-8.054 4.637-10.982l33.679-33.679c-23.185-21.476-53.69-33.435-85.173-33.435-43.44 0-83.709 22.453-106.406 59.548-5.857 9.518-8.785 18.792-12.935 28.554-1.221 3.417-3.66 5.613-7.321 5.613h-48.566c-4.393 0-7.81-3.661-7.81-7.81v-1.708c20.989-86.637 92.983-146.673 183.037-146.673 47.834 0 94.447 19.035 129.102 51.739l31.726-31.482c2.928-2.928 6.833-4.636 10.982-4.636 8.542 0 15.618 7.078 15.618 15.618z"></path>
</svg>
